Coordinates
version=1
nRows=12
nColumns=24
inDegrees=yes

Units are S.I. units (second, meters, Newtons, ...)
Angles are in degrees.

endheader
time	pelvis_tilt	pelvis_list	pelvis_rotation	pelvis_tx	pelvis_ty	pelvis_tz	hip_flexion_r	hip_adduction_r	hip_rotation_r	knee_angle_r	ankle_angle_r	subtalar_angle_r	mtp_angle_r	hip_flexion_l	hip_adduction_l	hip_rotation_l	knee_angle_l	ankle_angle_l	subtalar_angle_l	mtp_angle_l	lumbar_extension	lumbar_bending	lumbar_rotation
     22.87500000	     -1.76776094	     -3.03551500	   -270.17294642	     -0.01361976	      0.12216782	     -1.86623044	     25.86626959	    -11.18710728	    -13.48406654	    -61.63438879	     -5.00828265	     -2.04135131	     11.95675766	      5.86293237	      3.23566768	     -7.00141675	    -14.90708769	      7.22839763	     -3.00429494	      2.57007528	     -8.37158189	     -2.86089029	     -5.34936011
     22.88000000	     -1.69633679	     -3.01525018	   -270.04294828	     -0.01382972	      0.12229339	     -1.86524731	     26.45520238	    -11.01024086	    -13.51004602	    -60.81522369	     -4.49305266	     -1.71844150	     11.94783216	      5.29767717	      3.20863538	     -6.76694890	    -14.59348908	      7.37544663	     -3.06569192	      2.56107302	     -8.49756332	     -2.72253292	     -5.66379360
     22.88500000	     -1.58041170	     -3.08356537	   -269.80572048	     -0.01429041	      0.12228786	     -1.86433845	     27.07570827	    -10.84676436	    -13.65303529	    -59.93223970	     -3.73287382	     -1.34344563	     10.89840104	      4.89268931	      3.14912116	     -6.59449309	    -14.31773812	      7.52067400	     -3.01524013	      2.63137325	     -8.52786815	     -2.49776556	     -6.09547507
     22.89000000	     -1.56574392	     -3.01743356	   -269.79269344	     -0.01439444	      0.12246200	     -1.86351067	     27.58138550	    -10.66865865	    -13.56886185	    -58.98570571	     -3.34788410	     -1.39028859	     10.90037279	      4.22359569	      3.16721965	     -6.57157912	    -13.88703754	      7.66288954	     -2.97337398	      2.65990742	     -8.67489392	     -2.44864888	     -6.18117150
     22.89500000	     -1.50927592	     -2.97777695	   -269.59887414	     -0.01475020	      0.12254239	     -1.86304718	     28.00208143	    -10.61156839	    -13.79089922	    -57.96354588	     -2.96133156	     -1.16748640	     10.84223193	      3.58320515	      3.14955406	     -6.44275946	    -13.47358163	      7.74925299	     -2.83366510	      2.67510264	     -8.75968562	     -2.31288367	     -6.47973572
     22.90000000	     -1.46613141	     -2.99283932	   -269.46932945	     -0.01502489	      0.12248099	     -1.86208143	     28.52822236	    -10.46697479	    -13.81207556	    -56.92223682	     -2.40095255	     -0.75631035	     10.42272639	      3.09126838	      3.13207469	     -6.37448847	    -13.16401769	      7.88429870	     -2.69927311	      2.64743232	     -8.84827343	     -2.16843668	     -6.87077593
     22.90500000	     -1.39311319	     -2.97640395	   -269.34577401	     -0.01523350	      0.12241997	     -1.86114802	     28.98716260	    -10.24557855	    -13.79383692	    -55.80349725	     -1.69152384	     -1.00915992	      8.28736604	      2.56245971	      3.06424821	     -6.36905832	    -12.84840654	      7.98669060	     -2.47208852	      2.88079940	     -8.96499496	     -2.03300474	     -7.06472255
     22.91000000	     -1.30634175	     -2.96382768	   -269.22525534	     -0.01543320	      0.12232668	     -1.86024628	     29.39609515	    -10.03449184	    -13.80654767	    -54.60455710	     -1.32552397	     -0.94704312	      8.27025012	      2.05275418	      2.96295263	     -6.48596791	    -12.52354273	      8.00804985	     -2.16007678	      2.93707216	     -9.07299489	     -1.86611458	     -7.32694195
     22.91500000	     -1.24918781	     -2.97414232	   -269.09035863	     -0.01573249	      0.12208880	     -1.85930072	     29.84136331	     -9.89257430	    -13.90230297	    -53.39768781	     -0.96877770	     -1.08144104	      7.86017158	      1.52329046	      3.00862987	     -5.80198312	    -12.33582314	      8.43856948	     -2.76207311	      2.56566228	     -9.16566033	     -1.73512555	     -7.54615506
     22.92000000	     -1.16243927	     -2.99476680	   -268.97550227	     -0.01583796	      0.12183828	     -1.85826829	     30.25091039	     -9.66454424	    -13.88497164	    -52.10700709	     -0.67193488	     -1.18486994	      7.70519898	      1.10237353	      2.89014606	     -6.01993734	    -12.08907162	      8.59814939	     -2.33679744	      2.58390929	     -9.25892211	     -1.55784626	     -7.84833639
     22.92500000	     -1.08482758	     -3.00913935	   -268.87089075	     -0.01596754	      0.12152676	     -1.85729078	     30.63542493	     -9.44552962	    -13.89821560	    -50.77200635	     -0.31585144	     -1.33162169	      7.69469421	      0.64786953	      2.82017266	     -5.93277453	    -11.87587755	      8.78218265	     -2.30786207	      2.62173609	     -9.35439979	     -1.43480770	     -7.96341568
     22.93000000	     -1.01717669	     -3.04850013	   -268.76444903	     -0.01605950	      0.12116217	     -1.85631998	     31.01358529	     -9.23040313	    -13.87828666	    -49.39576787	     -0.06631652	     -1.46173358	      7.62076269	      0.23841884	      2.74986230	     -5.85251483	    -11.69113256	      9.02947506	     -2.28285708	      2.65897392	     -9.42014049	     -1.29373298	     -8.16391497
